<?xml version="1.0" standalone="no"?>
<!DOCTYPE svg PUBLIC "-//W3C//DTD SVG 20010904//EN"
 "http://www.w3.org/TR/2001/REC-SVG-20010904/DTD/svg10.dtd">
<svg version="1.0" xmlns="http://www.w3.org/2000/svg"
 width="512.000000pt" height="512.000000pt" viewBox="0 0 512.000000 512.000000"
 preserveAspectRatio="xMidYMid meet">
<metadata>
Created by potrace 1.11, written by Peter Selinger 2001-2013
</metadata>
<g transform="translate(0.000000,512.000000) scale(0.100000,-0.100000)"
fill="#000000" stroke="none">
<path d="M1628 5075 c-2 -1 -32 -5 -68 -8 -126 -11 -261 -51 -349 -103 -287
-169 -247 -527 121 -1072 53 -78 159 -220 212 -283 17 -20 49 -58 71 -85 110
-133 346 -378 524 -543 39 -35 51 -52 40 -55 -8 -3 -50 -15 -94 -27 -44 -11
-132 -37 -195 -56 -63 -19 -135 -41 -160 -48 -148 -42 -543 -191 -715 -270
-355 -162 -593 -313 -766 -485 -292 -292 -290 -564 6 -856 124 -122 288 -237
490 -344 55 -29 107 -57 115 -61 161 -91 698 -296 1035 -395 82 -24 369 -101
405 -109 8 -2 38 -9 65 -15 71 -17 68 -16 200 -44 66 -14 136 -28 155 -31 19
-3 42 -8 50 -10 8 -3 31 -7 50 -9 19 -3 49 -7 65 -10 17 -2 46 -7 65 -10 19
-2 55 -8 80 -11 149 -22 266 -30 450 -29 283 1 477 46 725 169 344 171 604
448 748 795 72 173 102 334 102 540 0 225 -28 368 -111 568 -113 273 -319 521
-567 681 -65 42 -77 57 -58 77 42 42 132 245 157 353 9 36 18 75 21 86 10 41
12 292 2 340 -25 129 -55 226 -97 315 -77 163 -245 359 -392 457 -178 119
-481 245 -870 362 -146 43 -477 126 -550 136 -24 4 -47 8 -51 10 -3 2 -21 7
-40 10 -19 3 -45 7 -59 10 -32 6 -73 12 -130 20 -25 3 -52 8 -60 10 -8 2 -51
7 -95 11 -44 3 -89 8 -100 11 -21 5 -422 13 -427 8z"/>
</g>
</svg>
