<svg width="62" height="62" viewBox="0 0 62 62" fill="none" xmlns="http://www.w3.org/2000/svg">
<path fill-rule="evenodd" clip-rule="evenodd" d="M49.9907 39.7663H55.8032L55.9314 39.6143C56.0387 39.4772 58.5455 36.1805 57.073 33.0805C56.7956 32.4968 56.3978 31.9654 55.8807 31.4865C55.8719 31.4761 55.8628 31.466 55.8535 31.456L55.8503 31.4585C53.7255 29.5165 49.6212 28.4459 43.597 28.2695C42.7713 26.8477 37.9097 19.9233 22.3322 19.9233C16.8148 19.9233 9.06475 22.612 5.10033 28.4931C4.97812 28.654 3.93485 30.21 5.16889 34.86C5.49081 36.0821 7.00802 39.3758 7.0736 39.5159L7.18985 39.7693H11.5477L11.4941 39.2864C11.474 39.1083 11.464 38.9291 11.4643 38.7499C11.4548 38.0953 11.5801 37.4458 11.8326 36.8417C12.085 36.2377 12.4591 35.6921 12.9315 35.2389C13.4039 34.7857 13.9646 34.4346 14.5786 34.2075C15.1926 33.9805 15.8468 33.8822 16.5004 33.9189C17.1541 33.9556 17.7931 34.1265 18.3779 34.4209C18.9626 34.7154 19.4804 35.127 19.8991 35.6302C20.3179 36.1335 20.6285 36.7175 20.8117 37.346C20.9949 37.9745 21.0467 38.634 20.964 39.2834L20.9103 39.7663H40.6222L40.5685 39.2834C40.5476 39.1053 40.5367 38.9262 40.5357 38.7469C40.5357 37.482 41.0382 36.2689 41.9326 35.3745C42.827 34.4801 44.0401 33.9777 45.3049 33.9777C46.5698 33.9777 47.7829 34.4801 48.6773 35.3745C49.5717 36.2689 50.0742 37.482 50.0742 38.7469C50.074 38.9262 50.064 39.1053 50.0444 39.2834L49.9907 39.7663ZM56.2831 33.4352C56.156 33.1687 55.9963 32.9139 55.8043 32.671C55.5103 32.9388 55.0455 33.0589 54.6612 33.1103C54.4447 33.1377 54.2265 33.1496 54.0084 33.1461C52.9413 33.1461 51.743 32.8212 51.1975 32.1058C50.7742 31.5544 50.816 31.1072 50.9292 30.83C51.0391 30.5538 51.2554 30.3437 51.5032 30.1852C49.3907 29.5627 46.6531 29.2022 43.3372 29.1193V29.1907H5.71741C5.64925 29.3581 5.55905 29.6445 5.50303 30.0788H9.58894V32.7943H5.61332C5.70118 33.3382 5.83005 33.9511 6.01244 34.6394C6.13589 35.1085 6.46454 35.9413 6.81153 36.7648H11.0051C11.2943 36.0511 11.7292 35.3974 12.2903 34.8491C13.344 33.8194 14.7587 33.2429 16.232 33.2429C17.7053 33.2429 19.1201 33.8194 20.1737 34.8491C20.7348 35.3974 21.1697 36.0511 21.4589 36.7648H40.0363C40.3165 36.0211 40.7533 35.3378 41.3261 34.765C42.3837 33.7074 43.8182 33.1132 45.3139 33.1132C46.8096 33.1132 48.2441 33.7074 49.3017 34.765C49.8745 35.3378 50.3113 36.0211 50.5915 36.7648H56.3938C56.4891 36.4562 56.5663 36.1286 56.6116 35.79H53.4303V34.9166H56.6504C56.6254 34.4242 56.5155 33.9231 56.2831 33.4352ZM5.49982 31.921H8.71855V30.9522H5.45093C5.45084 31.238 5.46521 31.5599 5.49982 31.921ZM55.1947 32.0343L55.1923 32.0301C54.5756 31.4869 53.7669 31.0164 52.7738 30.6208C52.3623 30.7092 51.8319 30.9198 51.74 31.1549C51.6893 31.2742 51.7937 31.453 51.889 31.5752C52.2169 32.0015 53.1171 32.2966 54.0859 32.2727C54.4701 32.2932 54.8529 32.2109 55.1947 32.0343ZM55.3621 38.893H50.9446C50.9455 38.8773 50.9462 38.8613 50.9468 38.8454V38.8454V38.8453C50.9482 38.8129 50.9495 38.7809 50.9535 38.7529C50.9535 38.3757 50.9157 38.0024 50.8423 37.6381H56.0613C55.8001 38.217 55.5179 38.6638 55.3621 38.893ZM21.7326 37.6381H39.7855C39.7121 38.0024 39.6743 38.3757 39.6743 38.7529V38.8989H21.8701V38.7529C21.8614 38.3749 21.8149 38.0016 21.7326 37.6381ZM7.1869 37.6381C7.41867 38.1681 7.62693 38.6293 7.75023 38.8989H10.5939V38.7529C10.6026 38.3749 10.6491 38.0016 10.7314 37.6381H7.1869ZM42.5872 28.3173C41.3432 26.5645 36.6041 21.3209 24.2066 20.8358V28.3173H42.5872ZM23.3333 20.8098C23.0047 20.8031 22.671 20.7997 22.3322 20.7997C17.2578 20.7997 10.2227 23.1577 6.30088 28.3173H23.3333V20.8098ZM16.2391 42.6726C15.4727 42.6726 14.7235 42.4453 14.0862 42.0195C13.449 41.5937 12.9523 40.9886 12.659 40.2805C12.3658 39.5724 12.289 38.7933 12.4385 38.0416C12.5881 37.2899 12.9571 36.5995 13.499 36.0576C14.041 35.5156 14.7314 35.1466 15.4831 34.9971C16.2348 34.8475 17.0139 34.9243 17.722 35.2176C18.43 35.5109 19.0352 36.0075 19.461 36.6448C19.8868 37.282 20.1141 38.0312 20.1141 38.7976C20.1141 39.8253 19.7058 40.8109 18.9791 41.5376C18.2524 42.2643 17.2668 42.6726 16.2391 42.6726ZM16.2391 35.79C15.6448 35.79 15.0639 35.9662 14.5698 36.2964C14.0757 36.6265 13.6906 37.0958 13.4632 37.6448C13.2358 38.1938 13.1763 38.798 13.2922 39.3808C13.4081 39.9636 13.6943 40.499 14.1145 40.9192C14.5347 41.3394 15.0701 41.6256 15.6529 41.7415C16.2357 41.8574 16.8399 41.7979 17.3889 41.5705C17.9379 41.3431 18.4072 40.958 18.7373 40.4639C19.0675 39.9698 19.2437 39.3889 19.2437 38.7946C19.2429 37.998 18.9261 37.2342 18.3628 36.6709C17.7995 36.1076 17.0357 35.7908 16.2391 35.79ZM14.5371 40.4958C14.9887 40.9468 15.6008 41.2002 16.2391 41.2002V40.3268C15.8324 40.3268 15.4424 40.1655 15.1546 39.8782C14.8668 39.591 14.7048 39.2013 14.704 38.7947H13.8306C13.8314 39.4329 14.0855 40.0448 14.5371 40.4958ZM45.3761 42.6726C44.6097 42.6726 43.8605 42.4453 43.2233 42.0195C42.586 41.5937 42.0894 40.9886 41.7961 40.2805C41.5028 39.5724 41.426 38.7933 41.5756 38.0416C41.7251 37.2899 42.0941 36.5995 42.6361 36.0576C43.178 35.5156 43.8685 35.1466 44.6201 34.9971C45.3718 34.8475 46.1509 34.9243 46.859 35.2176C47.5671 35.5109 48.1723 36.0075 48.598 36.6448C49.0238 37.282 49.2511 38.0312 49.2511 38.7976C49.2511 39.8253 48.8428 40.8109 48.1161 41.5376C47.3894 42.2643 46.4038 42.6726 45.3761 42.6726ZM45.3761 35.79C44.7818 35.79 44.2009 35.9662 43.7068 36.2964C43.2127 36.6265 42.8276 37.0958 42.6002 37.6448C42.3728 38.1938 42.3133 38.798 42.4292 39.3808C42.5452 39.9636 42.8313 40.499 43.2515 40.9192C43.6717 41.3394 44.2071 41.6256 44.7899 41.7415C45.3728 41.8574 45.9769 41.7979 46.5259 41.5705C47.0749 41.3431 47.5442 40.958 47.8743 40.4639C48.2045 39.9698 48.3807 39.3889 48.3807 38.7946C48.3799 37.998 48.0631 37.2342 47.4998 36.6709C46.9365 36.1076 46.1727 35.7908 45.3761 35.79ZM43.6759 40.4947C44.1269 40.9457 44.7383 41.1994 45.376 41.2002V40.3268C44.9699 40.326 44.5807 40.1643 44.2935 39.8772C44.0063 39.59 43.8447 39.2008 43.8439 38.7947H42.9705C42.9713 39.4324 43.225 40.0438 43.6759 40.4947ZM28.0697 29.9924H24.5017V30.8658H28.0697V29.9924ZM22.8685 29.9924H19.3005V30.8658H22.8685V29.9924Z" fill="#007A33"/>
</svg>
