<svg width="47" height="47" viewBox="0 0 47 47" fill="none" xmlns="http://www.w3.org/2000/svg">
<path fill-rule="evenodd" clip-rule="evenodd" d="M15.7657 34.303C14.9604 34.2527 14.2012 33.9098 13.6311 33.3388C13.061 32.7679 12.7192 32.0082 12.67 31.2028V10.4189H9.91106C9.7921 10.4217 9.67881 10.4703 9.59467 10.5544C9.51054 10.6385 9.462 10.7518 9.45913 10.8708V36.4722C9.45908 36.5934 9.50626 36.7098 9.59064 36.7967C9.67503 36.8836 9.78997 36.9342 9.91106 36.9377H27.3417C27.4628 36.9342 27.5778 36.8836 27.6621 36.7967C27.7465 36.7098 27.7937 36.5934 27.7937 36.4722V35.3079C27.2063 35.1446 26.6454 34.8884 26.133 34.5461C26.0176 34.4689 25.9052 34.3879 25.7961 34.303H15.7657ZM28.4715 36.4722V35.4531C28.7575 35.4966 29.0475 35.5187 29.3392 35.5187C30.8694 35.5175 32.3366 34.9091 33.4187 33.827C33.4656 33.7801 33.5116 33.7325 33.5567 33.6842L38.2043 37.5399L38.6271 37.0304L33.98 33.1751C34.7088 32.1887 35.1093 30.9889 35.1103 29.7476C35.1103 28.6062 34.7718 27.4904 34.1377 26.5414C33.673 25.846 33.0648 25.2629 32.3581 24.8291V13.6931L25.7125 6.44873H15.7702C14.2066 6.44873 12.67 7.98301 12.67 9.54666V9.7568H9.91106C9.61141 9.7568 9.32404 9.87584 9.11216 10.0877C8.90028 10.2996 8.78125 10.587 8.78125 10.8866V36.4835C8.78125 36.7832 8.90028 37.0706 9.11216 37.2824C9.32404 37.4943 9.61141 37.6133 9.91106 37.6133H27.3417C27.4911 37.6134 27.6389 37.5838 27.7767 37.5263C27.9145 37.4688 28.0396 37.3846 28.1446 37.2785C28.2497 37.1723 28.3327 37.0465 28.3888 36.9081C28.4449 36.7697 28.473 36.6216 28.4715 36.4722ZM31.696 14.1518V24.4797C31.6469 24.4578 31.5975 24.4365 31.5477 24.4159C30.4932 23.9791 29.3328 23.8648 28.2133 24.0875C27.0939 24.3101 26.0656 24.8598 25.2585 25.6669C25.039 25.8863 24.8386 26.1222 24.6586 26.3717H15.6775V27.0338H24.2461C23.9818 27.5298 23.7899 28.0645 23.6791 28.6217C23.6266 28.8854 23.5928 29.1514 23.5776 29.4177H15.6775V30.0798H23.5777C23.6147 30.7215 23.7589 31.3559 24.0075 31.9561C24.2655 32.579 24.6292 33.1485 25.0793 33.641H15.768C15.138 33.5917 14.5463 33.3189 14.0997 32.8718C13.653 32.4248 13.3808 31.8329 13.3321 31.2028V9.54666C13.3321 8.34003 14.5636 7.10854 15.7702 7.10854H25.238V13.0219C25.238 13.3216 25.357 13.609 25.5689 13.8208C25.7808 14.0327 26.0682 14.1518 26.3678 14.1518H31.696ZM25.9001 7.62366V13.0265C25.9 13.1474 25.9473 13.2635 26.0317 13.3501C26.1162 13.4366 26.2311 13.4867 26.352 13.4897H31.2776L25.9001 7.62366ZM22.9965 13.4897H15.664V14.1518H22.9965V13.4897ZM15.664 16.791H29.3392V17.4531H15.664V16.791ZM29.3505 20.0833H15.6775V20.7453H29.3505V20.0833ZM15.6775 23.1993H29.3505V23.8613H15.6775V23.1993ZM29.3392 24.6386C28.3288 24.6386 27.341 24.9383 26.5008 25.4997C25.6606 26.061 25.0058 26.859 24.6191 27.7925C24.2324 28.726 24.1313 29.7533 24.3284 30.7443C24.5255 31.7354 25.0121 32.6457 25.7266 33.3602C26.4411 34.0747 27.3515 34.5613 28.3425 34.7584C29.3336 34.9556 30.3608 34.8544 31.2943 34.4677C32.2279 34.081 33.0258 33.4262 33.5872 32.586C34.1486 31.7459 34.4482 30.7581 34.4482 29.7476C34.4488 29.0761 34.3171 28.4111 34.0607 27.7904C33.8043 27.1698 33.4281 26.6058 32.9537 26.1305C32.4793 25.6553 31.9159 25.2781 31.2957 25.0206C30.6756 24.763 30.0107 24.6302 29.3392 24.6296V24.6386Z" fill="#45494D"/>
</svg>
