<svg xmlns="http://www.w3.org/2000/svg" width="32" height="32" viewBox="0 0 32 32">
    <g fill="none" fill-rule="evenodd" stroke="#FFF" stroke-linecap="round" stroke-linejoin="round" stroke-width="2">
        <path d="M8 16.995c0-.55.445-.995 1-.995h14c.552 0 1 .456 1 .995V24c0 1.105-.895 2-1.994 2H9.994A1.992 1.992 0 0 1 8 24v-7.005z"/>
        <rect width="20" height="6" x="6" y="10" rx="2"/>
        <path d="M16 10v16M16 7.5a2.5 2.5 0 1 1 2.5 2.5H16V7.5zM16 7.5a2.5 2.5 0 1 0-2.5 2.5H16V7.5z"/>
    </g>
</svg>
