<svg width="47" height="47" viewBox="0 0 47 47" fill="none" xmlns="http://www.w3.org/2000/svg">
<path fill-rule="evenodd" clip-rule="evenodd" d="M10.5294 9.00453L10.5294 11.3636V15.2702C10.6418 15.3304 10.7673 15.3632 10.8955 15.3654H12.0817V10.1954H33.8825V9.00453H10.5294ZM34.5446 10.1954V8.34473H9.86729V11.0561C9.12217 11.1476 8.4257 11.4889 7.89492 12.0299C7.278 12.6587 6.93509 13.5061 6.94113 14.3869V16.7957H6.90045V34.5066C6.89624 35.0863 7.12235 35.644 7.5291 36.0571C7.93584 36.4702 8.48996 36.7049 9.06968 36.7097H37.8075C38.3872 36.7049 38.9413 36.4702 39.348 36.0571C39.7548 35.644 39.9809 35.0863 39.9767 34.5066V30.3511H34.9129C34.342 30.3755 33.772 30.2837 33.2376 30.0813C32.7031 29.879 32.2153 29.5702 31.8037 29.1739C30.9617 28.2696 30.4661 27.0969 30.4045 25.8628C30.3429 24.6287 30.7192 23.4126 31.467 22.4289C32.2646 21.4618 33.4577 20.9511 34.9174 20.9511H39.9767V17.5707C39.9809 16.9908 39.7549 16.4329 39.3482 16.0194C39.0075 15.6731 38.5634 15.4518 38.0873 15.3859L38.0967 13.2345C38.1003 12.655 37.874 12.0976 37.4674 11.6847C37.0607 11.2717 36.507 11.0368 35.9274 11.0314H35.7933L35.7964 10.1954H34.5446ZM35.7909 11.6935L35.7773 15.3654H37.4233V13.2345C37.4275 12.8323 37.2727 12.4447 36.9926 12.1561C36.7124 11.8675 36.3296 11.7012 35.9274 11.6935H35.7909ZM35.1153 15.3654L35.1321 10.8574H12.7438V15.3654H35.1153ZM9.86729 11.724V13.5297C9.69618 13.7057 9.57134 13.9226 9.50541 14.1609C9.42468 14.4526 9.43624 14.7622 9.53848 15.0472C9.64072 15.3321 9.82865 15.5785 10.0765 15.7523C10.3107 15.9167 10.5876 16.0087 10.8729 16.0177V16.0432H37.8075C38.2106 16.048 38.5955 16.212 38.8783 16.4994C39.161 16.7868 39.3187 17.1743 39.3169 17.5775V20.2891H34.9174C33.2521 20.2891 31.8828 20.8788 30.9563 22.0086C30.1414 23.0456 29.7103 24.3325 29.7361 25.6511C29.7274 26.3895 29.8646 27.1224 30.1399 27.8075C30.4153 28.4927 30.8232 29.1168 31.3404 29.6439C31.8139 30.1016 32.3751 30.4588 32.9902 30.6941C33.6053 30.9295 34.2616 31.038 34.9197 31.0132H39.3146V34.5066C39.3189 34.9109 39.1626 35.3004 38.88 35.5897C38.5975 35.879 38.2118 36.0445 37.8075 36.0499H9.06968C8.66514 36.0445 8.27919 35.8791 7.99631 35.5899C7.71342 35.3006 7.55663 34.9111 7.56026 34.5066V31.1081H7.60319V14.405C7.59751 14.0542 7.66108 13.7057 7.79024 13.3794C7.91941 13.0532 8.11164 12.7556 8.35595 12.5038C8.60025 12.2519 8.89182 12.0507 9.21398 11.9117C9.42332 11.8213 9.6429 11.7584 9.86729 11.724ZM35.3309 28.9005H39.7508C41.8838 28.9005 41.8838 26.8691 41.8838 25.6511C41.8838 24.4332 41.8838 22.3995 39.7508 22.3995H35.3309C34.8969 22.3881 34.4649 22.4637 34.0605 22.6219C33.6562 22.7801 33.2876 23.0177 32.9765 23.3207C32.6655 23.6236 32.4182 23.9858 32.2494 24.3859C32.0806 24.786 31.9937 25.2158 31.9937 25.65C31.9937 26.0842 32.0806 26.514 32.2494 26.9141C32.4182 27.3142 32.6655 27.6764 32.9765 27.9793C33.2876 28.2823 33.6562 28.5199 34.0605 28.6781C34.4649 28.8363 34.8969 28.9119 35.3309 28.9005ZM34.3167 23.2362C34.6397 23.1107 34.9846 23.0514 35.3309 23.0616H39.7508C40.9958 23.0616 41.2218 23.8977 41.2218 25.6511C41.2218 27.4046 41.0026 28.2384 39.7508 28.2384H35.3309C34.9846 28.2486 34.6397 28.1892 34.3167 28.0638C33.9938 27.9383 33.6992 27.7493 33.4506 27.5079C33.202 27.2665 33.0044 26.9777 32.8694 26.6586C32.7345 26.3395 32.6649 25.9965 32.6649 25.65C32.6649 25.3035 32.7345 24.9605 32.8694 24.6414C33.0044 24.3223 33.202 24.0334 33.4506 23.7921C33.6992 23.5507 33.9938 23.3617 34.3167 23.2362ZM34.5684 26.9004C34.8222 27.07 35.1206 27.1605 35.4258 27.1605C35.8349 27.1599 36.2271 26.9972 36.5164 26.7079C36.8057 26.4186 36.9685 26.0264 36.9691 25.6172C36.9691 25.312 36.8786 25.0136 36.709 24.7598C36.5394 24.506 36.2984 24.3082 36.0164 24.1914C35.7344 24.0746 35.4241 24.044 35.1247 24.1036C34.8253 24.1631 34.5504 24.3101 34.3345 24.5259C34.1187 24.7418 33.9717 25.0168 33.9121 25.3161C33.8526 25.6155 33.8832 25.9258 34 26.2078C34.1168 26.4898 34.3146 26.7309 34.5684 26.9004ZM34.9362 24.8845C35.0811 24.7877 35.2515 24.736 35.4258 24.736C35.6593 24.7366 35.8832 24.8296 36.0483 24.9947C36.2134 25.1599 36.3065 25.3837 36.3071 25.6172C36.3071 25.7915 36.2554 25.9619 36.1585 26.1068C36.0617 26.2517 35.9241 26.3647 35.763 26.4314C35.602 26.4981 35.4248 26.5155 35.2539 26.4815C35.0829 26.4475 34.9259 26.3636 34.8027 26.2404C34.6794 26.1171 34.5955 25.9601 34.5615 25.7892C34.5275 25.6182 34.5449 25.441 34.6116 25.28C34.6783 25.119 34.7913 24.9813 34.9362 24.8845Z" fill="#45494D"/>
</svg>
