<svg width="32" height="32" viewBox="0 0 32 32" fill="none" xmlns="http://www.w3.org/2000/svg">
<path fill-rule="evenodd" clip-rule="evenodd" d="M16 5C9.92487 5 5 9.92487 5 16C5 16.116 5.0018 16.2317 5.00538 16.3469C5.01513 16.6611 5.17202 16.9524 5.42897 17.1334C5.68592 17.3144 6.01304 17.3641 6.31215 17.2675C9.06112 16.38 11.9761 15.8598 15 15.7656V23.5C15 25.433 16.567 27 18.5 27C20.433 27 22 25.433 22 23.5V22.25C22 21.6977 21.5523 21.25 21 21.25C20.4477 21.25 20 21.6977 20 22.25V23.5C20 24.3284 19.3284 25 18.5 25C17.6716 25 17 24.3284 17 23.5V15.7656C20.0239 15.8598 22.9389 16.38 25.6879 17.2675C25.987 17.3641 26.3141 17.3144 26.571 17.1334C26.828 16.9524 26.9849 16.6611 26.9946 16.3469C26.9982 16.2317 27 16.116 27 16C27 9.92487 22.0751 5 16 5ZM16 13.75C19.0949 13.75 22.0931 14.1699 24.9401 14.9564C24.423 10.4775 20.6176 7 16 7C11.3824 7 7.57702 10.4775 7.05985 14.9564C9.90688 14.1699 12.9051 13.75 16 13.75Z" fill="white"/>
</svg>
