<?xml version="1.0" encoding="UTF-8"?>
<svg width="32px" height="32px" viewBox="0 0 32 32" version="1.1" xmlns="http://www.w3.org/2000/svg" xmlns:xlink="http://www.w3.org/1999/xlink">
    <!-- Generator: Sketch 48.2 (47327) - http://www.bohemiancoding.com/sketch -->
    <title>icn-cmr-puntos</title>
    <desc>Created with Sketch.</desc>
    <defs></defs>
    <g id="Page-1" stroke="none" stroke-width="1" fill="none" fill-rule="evenodd">
        <g id="icn-cmr-puntos" fill="#FFFFFF">
            <g id="Group-6-Copy-3" transform="translate(3.000000, 3.000000)">
                <path d="M21.7260544,14.4634447 C21.7480831,14.5400638 21.7625829,14.6233697 21.7625829,14.7222781 C21.7625829,15.4817828 21.0247626,15.7032818 20.3839799,15.7032818 C19.9662722,15.7032818 19.5059013,15.5979653 19.2108847,15.297061 L19.7708028,14.6785355 C19.9411762,14.8872182 20.1458475,15.0022862 20.4210662,15.0022862 C20.6307566,15.0022862 20.8401682,14.9499066 20.8401682,14.7883099 C20.8401682,14.5773982 20.535392,14.5378349 20.1940874,14.4634447 C19.7671778,14.3687155 19.2858937,14.2143628 19.2858937,13.5824638 C19.2858937,12.8820254 19.91134,12.5769419 20.5398535,12.5769419 C20.9333019,12.5769419 21.3688557,12.6739 21.6460263,12.9672817 L21.0785795,13.5259049 C20.9447345,13.3604075 20.7676688,13.2754299 20.5468246,13.2754299 C20.3926241,13.2754299 20.2083085,13.3425762 20.2083085,13.520054 C20.2083085,13.9226528 21.4990757,13.64961 21.7260544,14.4634447 L21.7260544,14.4634447 Z M17.4025837,12.5808425 C16.4754286,12.5808425 15.7353775,13.1960246 15.7353775,14.1505599 C15.7353775,14.2603343 15.7482044,14.3623074 15.764935,14.4620516 C15.909376,15.2346512 16.5813892,15.7194415 17.4025837,15.7194415 C18.2212686,15.7194415 18.8932818,15.2346512 19.0368863,14.4620516 C19.0555688,14.3623074 19.0689533,14.2603343 19.0689533,14.1505599 C19.0689533,13.1960246 18.3275081,12.5808425 17.4025837,12.5808425 L17.4025837,12.5808425 Z M17.4025837,14.9056068 C17.057933,14.9056068 16.8150601,14.7345371 16.7135611,14.4620516 C16.6792633,14.3701086 16.6600231,14.2636776 16.6600231,14.1505599 C16.6600231,13.6997607 16.9394244,13.3921697 17.4025837,13.3921697 C17.8646276,13.3921697 18.1431924,13.6997607 18.1431924,14.1505599 C18.1431924,14.2636776 18.1245099,14.3701086 18.0899333,14.4620516 C17.9889919,14.7345371 17.7458402,14.9056068 17.4025837,14.9056068 L17.4025837,14.9056068 Z M11.911037,12.5903155 C12.8434901,12.5903155 13.0169309,13.2027114 13.0169309,14.0026153 L13.0169309,14.4623302 L13.0169309,15.6456085 L12.0942372,15.6456085 L12.0942372,14.4623302 L12.0942372,14.1853868 C12.0942372,13.8429689 12.0883815,13.4016426 11.6140685,13.4016426 C11.1336209,13.4016426 11.0619581,13.7744296 11.0619581,14.1608687 L11.0619581,14.4623302 L11.0619581,15.6456085 L10.5798374,15.6456085 L10.3905026,15.6456085 C10.2513596,15.6339066 10.1886198,15.5578447 10.1604566,15.4831759 L10.1590623,15.4784394 L10.149024,15.448349 L10.1473509,15.4402691 L10.1406587,15.4087856 L10.1389856,15.4020989 L10.1389856,15.3973624 L10.1375914,15.370894 L10.1375914,15.3661575 L10.1375914,15.3438683 L10.1375914,15.2187702 L10.0887937,15.304305 L10.0564479,15.3505551 C9.90615116,15.5436353 9.63288438,15.7194415 9.25560893,15.7194415 C8.38310717,15.7194415 8.17787825,15.1822716 8.15334001,14.4623302 C8.15334001,14.409672 8.14887851,14.3617502 8.14887851,14.3071416 L8.14887851,12.9001354 C8.17007062,12.7095627 8.32510769,12.6713924 8.40708772,12.6655415 L9.06989907,12.6655415 L9.06989907,14.1235343 C9.06989907,14.2324728 9.07380288,14.3503269 9.08886043,14.4623302 C9.12427358,14.702775 9.2285611,14.9089502 9.55034667,14.9089502 C9.89471857,14.9089502 10.0291212,14.7150341 10.0781977,14.4623302 C10.0957648,14.3637005 10.1030148,14.2569909 10.1030148,14.148331 L10.1030148,12.6655415 L10.7990085,12.6655415 L10.858681,12.6791937 L10.8776424,12.6875521 L10.9071998,12.7014829 L10.9242093,12.7140205 L10.944286,12.7307375 L10.9596224,12.7466185 L10.9763531,12.7661216 L10.9869491,12.7845102 L10.9969875,12.8045705 L11.0061893,12.8210087 L11.0128816,12.8424621 L11.0167854,12.8586218 L11.0218046,12.8770104 L11.0243142,12.8956776 L11.0251507,12.8973493 L11.0251507,12.9101656 L11.0259872,12.9235391 L11.0259872,12.9243749 C11.0287757,12.9525151 11.0259872,13.0645183 11.0259872,13.0645183 L11.0784098,13.0023872 L11.1104769,12.958366 C11.2610524,12.7644499 11.5320884,12.5903155 11.911037,12.5903155 L11.911037,12.5903155 Z M6.36929837,12.5613395 C5.94601371,12.5613395 5.58574773,12.8159937 5.44214325,13.0344279 L5.42987413,13.0344279 L5.42987413,12.6371228 L4.57131455,12.6371228 L4.57131455,14.4623302 L4.57131455,17.1601601 L5.09609829,17.1601601 C5.38191302,17.1264476 5.47811408,16.9219442 5.50460423,16.7400085 L5.50460423,16.4608362 L5.50181579,16.4469054 L5.50460423,16.4469054 L5.50460423,15.3282659 L5.51770988,15.3282659 C5.72767914,15.6205331 6.0890605,15.7250138 6.47693201,15.7250138 C7.21558883,15.7250138 7.70189215,15.1546887 7.82486219,14.4623302 C7.84493894,14.3489339 7.85692921,14.2355375 7.85692921,14.1187978 C7.85692921,13.2071692 7.26605953,12.5613395 6.36929837,12.5613395 L6.36929837,12.5613395 Z M6.17829047,14.9058854 C5.83085129,14.9058854 5.58853616,14.7348158 5.48647939,14.4623302 C5.44967203,14.3687155 5.42987413,14.2614487 5.42987413,14.1441518 C5.42987413,13.690845 5.70927546,13.379632 6.17829047,13.379632 C6.64256514,13.379632 6.92308185,13.690845 6.92308185,14.1441518 C6.92308185,14.2614487 6.90384163,14.3687155 6.86731312,14.4623302 C6.76553519,14.7348158 6.52294122,14.9058854 6.17829047,14.9058854 L6.17829047,14.9058854 Z M14.6740986,13.3888263 L14.6740986,14.3793029 C14.6740986,14.4068858 14.6760505,14.4358618 14.6760505,14.4623302 C14.6849735,14.7362088 14.7463191,14.9298463 15.1102101,14.9298463 C15.2097573,14.9298463 15.4052267,14.9181445 15.4855336,14.8440329 L15.4855336,15.6107816 C15.2830932,15.684336 15.0561144,15.7027246 14.8394529,15.7027246 C14.2246027,15.7027246 13.7522415,15.4522496 13.7522415,14.801962 L13.7522415,14.4623302 L13.7522415,13.3852043 L13.1630449,13.3852043 L13.1630449,12.6499391 L13.7522415,12.6499391 L13.7522415,12.4078226 L13.7522415,11.9968653 C13.7433186,11.9082657 13.8135871,11.7633859 13.976153,11.7650576 L14.6740986,11.7650576 L14.6668487,11.7700726 L14.6740986,11.7681223 L14.6740986,12.6499391 L15.4855336,12.6499391 L15.4838606,12.6532825 L15.4838606,12.8527709 L15.4838606,13.1965819 C15.4908317,13.268186 15.4342264,13.3888263 15.297593,13.3888263 L14.6740986,13.3888263 Z M7.29254967,10.6001679 L7.29422274,10.5971031 L7.29254967,10.6001679 Z M4.59278551,10.3404986 C4.59278551,11.1969614 5.29100999,11.8926633 6.15180032,11.8951708 C6.72817014,11.8951708 7.10683981,11.5937093 7.27888634,11.4092661 L7.29171314,11.3972857 L7.31402064,11.3602299 L7.32461669,11.3474136 L7.32545323,11.3462991 L7.32684744,11.344906 L7.33855888,11.3496425 L7.32824166,11.3404482 C7.34692419,11.3070144 7.35919331,11.2738592 7.36281827,11.2381964 L7.36504902,11.2111708 L7.36644324,11.1952897 C7.36281827,11.1019537 7.31402064,11.0164188 7.24207898,10.9704474 C7.1949544,10.9389638 7.14057989,10.9253117 7.09010919,10.9253117 C7.0282059,10.9253117 6.96351417,10.9484368 6.91220694,10.9893932 L6.91137041,10.990229 L6.89631286,11.0091748 L6.83217882,11.0701916 C6.64563242,11.244326 6.40359614,11.3387765 6.15180032,11.3387765 C5.5932765,11.3387765 5.14266517,10.8876987 5.14266517,10.332976 C5.14266517,9.77908925 5.5932765,9.32856866 6.15180032,9.32856866 C6.34169285,9.32550389 6.64256514,9.40936703 6.85114019,9.62167173 L7.36504902,9.49657356 C7.36504902,9.49657356 7.04047502,8.77440326 6.10216616,8.78387617 C5.24137582,8.78387617 4.59278551,9.48375726 4.59278551,10.3404986 L4.59278551,10.3404986 Z M10.1493028,8.90284481 C9.92734327,8.90284481 9.79935404,9.06165541 9.70371067,9.26727334 L9.08049512,10.5881875 L8.38617445,9.40825257 L7.60178728,9.51635523 L7.60178728,11.8452987 C7.60178728,11.9893427 7.72336311,12.1066397 7.87170792,12.1080327 C8.01810084,12.1066397 8.13939782,11.9893427 8.13939782,11.8452987 L8.13939782,10.055754 L9.07436056,11.6421883 L10.015179,9.76237235 L10.0185251,11.8778967 L10.5544626,11.8029492 L10.5544626,9.31073729 C10.5544626,9.08840246 10.3715412,8.90284481 10.1493028,8.90284481 L10.1493028,8.90284481 Z M12.8183942,12.1141623 C12.966739,12.1124906 13.0902667,11.9935219 13.091661,11.8452987 C13.0902667,11.7617142 13.0556901,11.7037623 13.0169309,11.6625272 L13.039796,11.636616 L13.0169309,11.6625272 L12.2119093,10.8578869 L12.2743702,10.846185 C12.7054625,10.7556351 12.997133,10.482871 12.9999214,9.96046767 C12.9999214,9.34723587 12.4829453,9.01039023 11.9729403,9.00816131 L10.8790366,9.00816131 L10.8790366,11.7566991 L11.3982435,11.6806372 L11.3982435,9.53279352 L11.9941324,9.53279352 C12.2501108,9.53279352 12.4737434,9.71361471 12.4737434,9.9554526 C12.47458,10.1964546 12.2936104,10.3179308 12.0398627,10.3786689 C11.7810958,10.4469296 11.6642603,10.626915 11.6625873,10.82306 C11.6625873,10.9448148 11.7108272,11.074928 11.8073071,11.1816376 C11.9018351,11.2994918 11.9576039,11.3462991 11.9592769,11.3474136 L12.6678186,12.0709769 C12.709924,12.0957737 12.7592793,12.1141623 12.8183942,12.1141623 L12.8183942,12.1141623 Z" id="Fill-3"></path>
                <path d="M13.0106645,26 C5.8250729,26 0,20.1797017 0,13 C0,5.82029825 5.8250729,0 13.0106645,0 C20.1962561,0 26.021329,5.82029825 26.021329,13 C26.021329,20.1797017 20.1962561,26 13.0106645,26 Z M13.0106645,23.8333333 C18.9986575,23.8333333 23.8528849,18.9830848 23.8528849,13 C23.8528849,7.01691521 18.9986575,2.16666667 13.0106645,2.16666667 C7.0226715,2.16666667 2.16844408,7.01691521 2.16844408,13 C2.16844408,18.9830848 7.0226715,23.8333333 13.0106645,23.8333333 Z" id="Combined-Shape"></path>
            </g>
        </g>
    </g>
</svg>