<svg width="220" height="40" viewBox="0 0 220 40" fill="none" xmlns="http://www.w3.org/2000/svg">
<path fill-rule="evenodd" clip-rule="evenodd" d="M15.6787 13.7913H30.975V22.958H15.6787V13.7913Z" fill="#154734"/>
<path fill-rule="evenodd" clip-rule="evenodd" d="M52.0345 10.6901C52.4483 10.8623 52.8194 11.0787 53.1372 11.3573C53.4466 11.6322 53.7095 11.9407 53.9026 12.2875C54.0956 12.6298 54.2466 13.0065 54.3473 13.3929C54.4487 13.7868 54.4937 14.1823 54.4937 14.5889C54.4937 15.2914 54.3473 15.934 54.0761 16.5151C53.7982 17.1083 53.4233 17.6063 52.9434 18.0272C52.4679 18.4421 51.9105 18.7664 51.2803 18.9851C50.6305 19.2165 49.9492 19.3273 49.2078 19.3273H43.7026C43.2264 19.3273 42.8891 19.2352 42.7118 19.0368C42.5293 18.8241 42.4414 18.5028 42.4414 18.0489V4.84099C42.4414 4.40737 42.5293 4.07635 42.7118 3.87564C42.8891 3.66444 43.2264 3.55884 43.7026 3.55884L48.9397 3.53638C49.633 3.53638 50.2775 3.60378 50.8822 3.7648C51.4808 3.91233 52.0037 4.14225 52.4205 4.46204C52.8577 4.77359 53.192 5.181 53.4429 5.67679C53.6817 6.17407 53.817 6.76721 53.817 7.45397C53.817 8.12426 53.6434 8.74286 53.3077 9.29107C52.9659 9.83853 52.5407 10.2467 52.0345 10.5358V10.6901ZM45.1914 9.68426H48.8465C49.0591 9.68426 49.2882 9.66104 49.5399 9.60263C49.7877 9.54496 50.0198 9.45359 50.2242 9.31355C50.4375 9.16676 50.614 8.96605 50.7417 8.7204C50.8822 8.47101 50.9483 8.14823 50.9483 7.7483C50.9483 7.20309 50.774 6.7792 50.4097 6.46391C50.0694 6.14337 49.5864 5.98685 48.987 5.98685H45.1914V9.68426ZM51.6476 14.4084C51.6476 13.688 51.4155 13.0948 50.9595 12.6372C50.4953 12.1871 49.8215 11.9535 48.9397 11.9535H45.1914V16.8522H48.9171C49.4587 16.8522 49.9042 16.784 50.2429 16.62C50.5997 16.4627 50.8739 16.2635 51.0872 16.0201C51.2968 15.7812 51.4463 15.5138 51.5237 15.2315C51.6093 14.9327 51.6476 14.6616 51.6476 14.4084Z" fill="#545759"/>
<path fill-rule="evenodd" clip-rule="evenodd" d="M65.0282 18.0489C65.0282 18.4114 64.8847 18.6578 64.594 18.7926C64.274 18.9371 63.9127 19.0674 63.5259 19.1738C63.1443 19.2794 62.7492 19.3648 62.3398 19.4239C61.9364 19.4808 61.5383 19.522 61.1327 19.5497C60.7376 19.567 60.3537 19.5722 59.9947 19.5722C59.0001 19.5722 58.1761 19.4808 57.5271 19.2794C56.8721 19.0757 56.35 18.8023 55.9684 18.4631C55.5854 18.1335 55.3255 17.7366 55.1647 17.264C55.016 16.8192 54.9431 16.3324 54.9431 15.8261C54.9431 15.2959 55.0287 14.7964 55.206 14.3081C55.372 13.8145 55.6507 13.3816 56.0488 13.0207C56.4327 12.6574 56.9382 12.3646 57.5662 12.1369C58.1926 11.904 58.9611 11.7932 59.8587 11.7932H62.3849V11.4075C62.3849 11.1341 62.3541 10.8675 62.2962 10.6294C62.2376 10.3837 62.1219 10.1815 61.9477 9.99803C61.7704 9.81679 61.5421 9.67674 61.2401 9.57489C60.9314 9.47603 60.5475 9.43784 60.0638 9.43784C59.5612 9.43784 58.9971 9.47603 58.3969 9.5689C57.7945 9.66026 57.298 9.76511 56.9277 9.8812C56.7609 9.93062 56.6482 9.93062 56.5634 9.90966C56.4935 9.87745 56.4327 9.79582 56.4086 9.66027L56.0924 8.36988C56.0293 8.13846 56.0961 7.98119 56.308 7.91079C56.9277 7.66589 57.6157 7.49289 58.3699 7.39628C59.1293 7.29668 59.8369 7.25024 60.4942 7.25024C62.0558 7.25024 63.2051 7.5955 63.9322 8.28375C64.6714 8.97126 65.0282 9.98005 65.0282 11.3041V18.0489ZM62.3653 13.798H60.2035C59.9443 13.798 59.6664 13.8115 59.3757 13.8422C59.0858 13.8729 58.8003 13.9531 58.5412 14.0909C58.2813 14.2309 58.0649 14.4234 57.8832 14.6735C57.7089 14.9244 57.624 15.2861 57.624 15.7317C57.624 16.3773 57.8448 16.8222 58.2813 17.0761C58.7229 17.3352 59.2983 17.4647 60.0187 17.4647C60.1269 17.4647 60.2703 17.4647 60.4581 17.4513C60.6437 17.4483 60.8502 17.4288 61.0553 17.3899C61.2679 17.3719 61.4925 17.3322 61.7208 17.2835C61.9559 17.2438 62.1715 17.1779 62.3653 17.1083V13.798Z" fill="#545759"/>
<path fill-rule="evenodd" clip-rule="evenodd" d="M71.0105 9.49801C70.8415 9.49801 70.6011 9.50325 70.3037 9.51074C69.9904 9.51748 69.6306 9.56092 69.228 9.63132V18.9516C69.228 19.1141 69.2055 19.216 69.1424 19.2654C69.0733 19.3133 68.9598 19.3268 68.7998 19.3268H67.0399C66.8851 19.3268 66.78 19.3133 66.7139 19.2654C66.6395 19.216 66.6057 19.1141 66.6057 18.9516V9.31827C66.6057 8.7813 66.6974 8.3649 66.9039 8.06009C67.0895 7.75977 67.4988 7.55906 68.1178 7.45346C68.2725 7.43474 68.4656 7.41527 68.7217 7.3898C68.9771 7.3546 69.2558 7.33813 69.5382 7.31641C69.8244 7.30742 70.0986 7.2887 70.366 7.26623C70.6364 7.255 70.8693 7.24976 71.0623 7.24976C72.0599 7.24976 72.9139 7.3546 73.6381 7.55981C74.3689 7.7755 74.9721 8.09903 75.4393 8.56561C75.9171 9.02619 76.2679 9.6126 76.4887 10.354C76.7156 11.0865 76.826 11.9709 76.826 13.0059V18.9516C76.826 19.1141 76.7982 19.216 76.7434 19.2654C76.6855 19.3133 76.5661 19.3268 76.4031 19.3268H74.6318C74.4801 19.3268 74.3757 19.3133 74.3141 19.2654C74.2405 19.216 74.2067 19.1141 74.2067 18.9516V12.9625C74.2067 12.3791 74.1631 11.8698 74.0632 11.4392C73.9701 10.9988 73.7958 10.6483 73.5524 10.354C73.3173 10.0657 72.9883 9.8545 72.5707 9.71669C72.168 9.56916 71.6422 9.49801 71.0105 9.49801Z" fill="#545759"/>
<path fill-rule="evenodd" clip-rule="evenodd" d="M83.6015 17.2838C84.0785 17.2838 84.5653 17.2246 85.0408 17.1085C85.5245 16.985 85.9271 16.8516 86.2366 16.6981C86.4026 16.6232 86.522 16.6023 86.5957 16.633C86.6542 16.6592 86.7151 16.7453 86.7669 16.8516L87.328 18.1608C87.482 18.3959 87.4279 18.5854 87.1846 18.7232C86.5679 19.0677 85.9076 19.2991 85.1925 19.41C84.4796 19.5223 83.8104 19.5717 83.1922 19.5717C81.5096 19.5717 80.2168 19.0677 79.3245 18.0492C78.4261 17.0344 77.9739 15.5148 77.9739 13.5032C77.9739 12.5573 78.1053 11.6968 78.3645 10.9299C78.6161 10.1586 78.9842 9.49801 79.4627 8.95205C79.9314 8.39935 80.5008 7.9807 81.1776 7.69087C81.8461 7.3958 82.5957 7.24976 83.44 7.24976C84.0628 7.24976 84.6584 7.31566 85.2391 7.43474C85.8069 7.5673 86.3605 7.771 86.8743 8.03312C87.0103 8.11476 87.0907 8.18516 87.1147 8.26454C87.1493 8.33793 87.1267 8.45027 87.0606 8.60006L86.4875 9.93014C86.4297 10.041 86.3605 10.1219 86.3027 10.1541C86.2313 10.1855 86.1044 10.1586 85.9271 10.0829C85.5636 9.94811 85.1925 9.83877 84.7974 9.74291C84.4075 9.63132 83.9929 9.59163 83.5482 9.59163C83.0374 9.59163 82.6003 9.69572 82.2367 9.91591C81.8574 10.1346 81.5599 10.4222 81.3323 10.7839C81.1032 11.1426 80.9289 11.5598 80.8215 12.0331C80.7164 12.4997 80.666 12.9932 80.666 13.5032C80.666 14.0327 80.7081 14.5218 80.802 14.9741C80.8876 15.4369 81.0484 15.8406 81.2692 16.1851C81.4825 16.5251 81.777 16.797 82.1481 16.9924C82.5259 17.1909 83.0149 17.2838 83.6015 17.2838Z" fill="#545759"/>
<path fill-rule="evenodd" clip-rule="evenodd" d="M98.7 13.3789C98.7 15.3628 98.2275 16.8936 97.3074 17.9683C96.3819 19.037 95.0005 19.5717 93.164 19.5717C91.3431 19.5717 89.9918 19.0565 89.0912 18.0147C88.201 16.9685 87.7563 15.4452 87.7563 13.4448C87.7563 12.445 87.8886 11.5695 88.1627 10.8056C88.4256 10.0357 88.7975 9.4014 89.282 8.86967C89.7642 8.34542 90.3479 7.93951 91.0141 7.66615C91.6857 7.3898 92.4211 7.24976 93.2376 7.24976C95.0253 7.24976 96.3819 7.79048 97.3074 8.8809C98.2275 9.96908 98.7 11.4647 98.7 13.3789ZM96.0116 13.4448C96.0116 12.8921 95.9733 12.3791 95.8877 11.9035C95.8021 11.4197 95.6593 10.9906 95.4543 10.6289C95.2499 10.2469 94.9705 9.96085 94.6137 9.7489C94.2629 9.53097 93.8257 9.43735 93.2797 9.43735C92.7929 9.43735 92.3753 9.53097 92.0192 9.74291C91.6519 9.93988 91.3454 10.2245 91.1186 10.5622C90.8729 10.9052 90.6957 11.3269 90.577 11.8054C90.4718 12.287 90.4177 12.815 90.4177 13.3647C90.4177 14.6229 90.619 15.6047 91.0217 16.3274C91.4318 17.0426 92.1582 17.3901 93.1993 17.3901C93.7168 17.3901 94.1585 17.2853 94.5221 17.0726C94.8849 16.8517 95.1718 16.5626 95.3927 16.1978C95.6052 15.8399 95.763 15.4085 95.8636 14.9404C95.9681 14.4663 96.0116 13.9608 96.0116 13.4448Z" fill="#545759"/>
<path fill-rule="evenodd" clip-rule="evenodd" d="M62.9894 37.4614C62.9894 37.8216 62.8489 38.0642 62.5522 38.1998C62.2187 38.3458 61.8634 38.4881 61.481 38.5892C61.0859 38.6911 60.6961 38.7772 60.2814 38.8356C59.8713 38.8933 59.4694 38.9397 59.0713 38.9592C58.6679 38.9869 58.2811 38.9996 57.9138 38.9996C56.9162 38.9996 56.0795 38.8933 55.4222 38.6911C54.7582 38.4881 54.2429 38.223 53.8493 37.8718C53.4692 37.5355 53.198 37.1303 53.0515 36.6668C52.8968 36.2137 52.8157 35.7194 52.8157 35.2153C52.8157 34.6671 52.9133 34.1766 53.0868 33.6793C53.2559 33.1873 53.5398 32.7514 53.9296 32.3754C54.339 32.0137 54.8355 31.7171 55.474 31.4887C56.1073 31.2543 56.8727 31.1412 57.7711 31.1412H60.328V30.7638C60.328 30.4687 60.2965 30.2126 60.2424 29.9617C60.177 29.7258 60.0576 29.5191 59.8871 29.3311C59.7045 29.1551 59.4694 29.0061 59.1795 28.9132C58.8648 28.8128 58.4719 28.7574 57.9874 28.7574C57.4653 28.7574 56.9162 28.8076 56.3078 28.899C55.6866 28.9836 55.2066 29.0884 54.819 29.2188C54.6455 29.2599 54.5328 29.2764 54.4555 29.2465C54.3863 29.2188 54.339 29.1221 54.3007 28.9836L53.9905 27.6984C53.9266 27.4558 53.9905 27.2963 54.1888 27.2244C54.819 26.9922 55.5236 26.805 56.2778 26.7114C57.0327 26.6095 57.7515 26.5586 58.4141 26.5586C59.9945 26.5586 61.1468 26.9068 61.8867 27.6026C62.622 28.2991 62.9894 29.3116 62.9894 30.6484V37.4614ZM60.301 33.1626H58.1188C57.8597 33.1626 57.5885 33.1805 57.2918 33.2127C56.9884 33.2434 56.7224 33.3266 56.4438 33.4606C56.1929 33.6014 55.957 33.7834 55.7895 34.038C55.6205 34.3084 55.5319 34.6671 55.5319 35.1187C55.5319 35.7613 55.7557 36.2204 56.1929 36.4735C56.6293 36.7304 57.2152 36.8735 57.9446 36.8735C58.046 36.8735 58.1925 36.8607 58.3863 36.8457C58.5748 36.8383 58.7761 36.8263 58.9812 36.7911C59.1983 36.7551 59.4146 36.7222 59.658 36.6802C59.8901 36.6338 60.1184 36.5791 60.301 36.4937V33.1626Z" fill="#9FA1A1"/>
<path fill-rule="evenodd" clip-rule="evenodd" d="M79.9781 37.4614C79.9781 37.8216 79.8301 38.0642 79.5371 38.1998C79.2051 38.3458 78.8401 38.4881 78.4697 38.5892C78.0754 38.6911 77.684 38.7772 77.2739 38.8356C76.8517 38.8933 76.4499 38.9397 76.0442 38.9592C75.6379 38.9869 75.2623 38.9996 74.898 38.9996C73.8974 38.9996 73.0742 38.8933 72.4116 38.6911C71.7424 38.4881 71.2203 38.223 70.8335 37.8718C70.4504 37.5355 70.1875 37.1303 70.0297 36.6668C69.8697 36.2137 69.7976 35.7194 69.7976 35.2153C69.7976 34.6671 69.8892 34.1766 70.071 33.6793C70.2415 33.1873 70.524 32.7514 70.9191 32.3754C71.3172 32.0137 71.8167 31.7171 72.4424 31.4887C73.0802 31.2543 73.8471 31.1412 74.7515 31.1412H77.3047V30.7638C77.3047 30.4687 77.2822 30.2126 77.213 29.9617C77.1612 29.7258 77.0418 29.5191 76.8675 29.3311C76.6902 29.1551 76.4499 29.0061 76.1441 28.9132C75.8504 28.8128 75.4478 28.7574 74.9641 28.7574C74.4533 28.7574 73.8862 28.8076 73.2815 28.899C72.6738 28.9836 72.1878 29.0884 71.804 29.2188C71.6425 29.2599 71.514 29.2764 71.4449 29.2465C71.3638 29.2188 71.3172 29.1221 71.2706 28.9836L70.9604 27.6984C70.8943 27.4558 70.9724 27.2963 71.1625 27.2244C71.804 26.9922 72.5048 26.805 73.2589 26.7114C74.0244 26.6095 74.7372 26.5586 75.4058 26.5586C76.9757 26.5586 78.1325 26.9068 78.8709 27.6026C79.6107 28.2991 79.9781 29.3116 79.9781 30.6484V37.4614ZM77.2934 33.1626H75.1046C74.8372 33.1626 74.566 33.1805 74.2835 33.2127C73.9778 33.2434 73.6954 33.3266 73.4362 33.4606C73.1658 33.6014 72.945 33.7834 72.7752 34.038C72.5904 34.3084 72.5153 34.6671 72.5153 35.1187C72.5153 35.7613 72.7286 36.2204 73.1658 36.4735C73.6022 36.7304 74.1904 36.8735 74.9258 36.8735C75.031 36.8735 75.1684 36.8607 75.3675 36.8457C75.5447 36.8383 75.7498 36.8263 75.9744 36.7911C76.175 36.7551 76.4003 36.7222 76.6384 36.6802C76.8758 36.6338 77.0974 36.5791 77.2934 36.4937V33.1626Z" fill="#9FA1A1"/>
<path fill-rule="evenodd" clip-rule="evenodd" d="M98.5258 26.5588C100.266 26.5588 101.566 27.0149 102.416 27.9002C103.248 28.7966 103.662 30.0151 103.662 31.5766C103.662 31.9668 103.619 32.2978 103.535 32.5569C103.442 32.8018 103.309 33.0063 103.14 33.171C102.985 33.3156 102.787 33.4249 102.56 33.4751C102.339 33.538 102.104 33.5635 101.844 33.5635H95.7991C95.8051 34.1761 95.896 34.6576 96.0613 35.0613C96.2348 35.4612 96.4631 35.7773 96.7463 36.0319C97.037 36.2821 97.3653 36.4625 97.7439 36.5666C98.1232 36.6722 98.5484 36.7224 98.9855 36.7224C99.461 36.7224 99.9523 36.6663 100.416 36.5457C100.881 36.4296 101.295 36.2821 101.644 36.1173C101.875 36.0162 102.053 36.0506 102.146 36.2469L102.765 37.535C102.865 37.7866 102.811 37.9596 102.599 38.0645C102.026 38.4105 101.395 38.6524 100.714 38.7857C100.03 38.9205 99.3724 38.9999 98.7497 38.9999C96.9123 38.9999 95.5039 38.5071 94.5484 37.514C93.5697 36.5374 93.0859 34.9782 93.0859 32.8453C93.0859 31.8417 93.2189 30.9565 93.4901 30.1821C93.768 29.395 94.1421 28.7389 94.6138 28.211C95.1058 27.668 95.6744 27.2628 96.3355 26.9925C97.004 26.7026 97.7356 26.5588 98.5258 26.5588ZM98.5709 28.7577C98.1653 28.7577 97.798 28.8386 97.481 28.9958C97.1527 29.1606 96.8853 29.3763 96.6562 29.6451C96.4369 29.923 96.2506 30.2353 96.1146 30.5783C95.9756 30.9213 95.896 31.2785 95.887 31.6635H101.118C101.118 31.2538 101.09 30.8786 101.002 30.5296C100.927 30.1851 100.803 29.8848 100.602 29.6182C100.417 29.3531 100.154 29.1411 99.8411 28.9838C99.5121 28.8386 99.093 28.7577 98.5709 28.7577Z" fill="#9FA1A1"/>
<path fill-rule="evenodd" clip-rule="evenodd" d="M125.915 37.4614C125.915 37.8216 125.769 38.0642 125.479 38.1998C125.15 38.3458 124.794 38.4881 124.399 38.5892C124.009 38.6911 123.615 38.7772 123.205 38.8356C122.798 38.8933 122.384 38.9397 121.986 38.9592C121.586 38.9869 121.205 38.9996 120.837 38.9996C119.835 38.9996 119.008 38.8933 118.342 38.6911C117.692 38.4881 117.166 38.223 116.767 37.8718C116.391 37.5355 116.126 37.1303 115.972 36.6668C115.812 36.2137 115.731 35.7194 115.731 35.2153C115.731 34.6671 115.824 34.1766 116.01 33.6793C116.171 33.1873 116.461 32.7514 116.856 32.3754C117.243 32.0137 117.757 31.7171 118.392 31.4887C119.019 31.2543 119.796 31.1412 120.702 31.1412H123.255V30.7638C123.255 30.4687 123.224 30.2126 123.166 29.9617C123.103 29.7258 122.975 29.5191 122.804 29.3311C122.624 29.1551 122.395 29.0061 122.089 28.9132C121.785 28.8128 121.393 28.7574 120.907 28.7574C120.391 28.7574 119.823 28.8076 119.208 28.899C118.616 28.9836 118.121 29.0884 117.738 29.2188C117.572 29.2599 117.448 29.2764 117.375 29.2465C117.293 29.2188 117.243 29.1221 117.215 28.9836L116.9 27.6984C116.837 27.4558 116.903 27.2963 117.107 27.2244C117.738 26.9922 118.438 26.805 119.193 26.7114C119.962 26.6095 120.674 26.5586 121.332 26.5586C122.918 26.5586 124.078 26.9068 124.813 27.6026C125.537 28.2991 125.915 29.3116 125.915 30.6484V37.4614ZM123.224 33.1626H121.045C120.782 33.1626 120.503 33.1805 120.213 33.2127C119.917 33.2434 119.638 33.3266 119.362 33.4606C119.096 33.6014 118.884 33.7834 118.704 34.038C118.538 34.3084 118.438 34.6671 118.438 35.1187C118.438 35.7613 118.671 36.2204 119.105 36.4735C119.537 36.7304 120.132 36.8735 120.864 36.8735C120.965 36.8735 121.111 36.8607 121.304 36.8457C121.495 36.8383 121.696 36.8263 121.9 36.7911C122.124 36.7551 122.341 36.7222 122.578 36.6802C122.813 36.6338 123.026 36.5791 123.224 36.4937V33.1626Z" fill="#9FA1A1"/>
<path fill-rule="evenodd" clip-rule="evenodd" d="M53.2804 22.9706C53.2301 22.874 53.1009 22.8545 52.8853 22.8545H46.4832C45.726 22.8545 45.0687 22.9459 44.5527 23.184C44.0464 23.4042 43.622 23.7128 43.3035 24.085C42.9827 24.4759 42.7619 24.899 42.638 25.3956C42.5073 25.8854 42.4412 26.3946 42.4412 26.9294V38.2732C42.4412 38.465 42.4877 38.593 42.5764 38.6522C42.6733 38.7196 42.7972 38.7473 42.967 38.7473H43.6948C44.1786 38.7151 45.2099 38.465 45.2099 36.9896V31.7569H52.0425C52.2498 31.7569 52.3662 31.7172 52.4211 31.6191C52.4759 31.5277 52.5022 31.4034 52.5022 31.2349V29.9445C52.5022 29.7258 52.4759 29.591 52.4211 29.5266C52.3662 29.4607 52.2498 29.4173 52.0425 29.4173H45.2099V26.7721C45.2099 26.2898 45.3316 25.9161 45.575 25.6637C45.7988 25.4195 46.209 25.2877 46.7896 25.2877H52.8853C53.0866 25.2877 53.2143 25.257 53.2721 25.1746C53.3413 25.111 53.372 24.9679 53.372 24.7665V23.3608C53.372 23.184 53.3413 23.0477 53.2804 22.9706Z" fill="#9FA1A1"/>
<path fill-rule="evenodd" clip-rule="evenodd" d="M91.8567 30.2358C91.6441 29.4697 91.3429 28.8271 90.92 28.2797C90.5061 27.7449 89.9698 27.3106 89.3035 27.0155C88.6462 26.7114 87.8568 26.5594 86.9524 26.5594C86.5415 26.5594 86.0735 26.5983 85.5439 26.6665C85.0294 26.7339 84.5494 26.8387 84.0927 26.9683L84.0822 22.5767C84.0822 22.3834 84.0627 22.2756 83.9935 22.2299C83.938 22.1797 83.8148 22.167 83.6533 22.167H82.9434C82.4349 22.1947 81.4742 22.4531 81.4434 23.8618V37.6366C81.4434 37.764 81.4674 37.8718 81.5125 37.9684C81.5515 38.0418 81.6559 38.1145 81.7769 38.1654C82.4732 38.4882 83.2086 38.6911 84.0243 38.805C84.8446 38.9308 85.6296 38.9997 86.4108 38.9997C87.4001 38.9997 88.2707 38.8357 89.0106 38.5226C89.7294 38.1998 90.3251 37.7625 90.8036 37.1948C91.2655 36.6256 91.6216 35.9546 91.8297 35.1832C92.0467 34.4081 92.1579 33.5715 92.1579 32.6728C92.1579 31.7891 92.0535 30.9728 91.8567 30.2358ZM89.2043 34.6088C89.0496 35.1188 88.831 35.5269 88.5681 35.8385C88.2864 36.1613 87.9581 36.386 87.566 36.529C87.1844 36.6803 86.7397 36.7447 86.2785 36.7447C85.9691 36.7447 85.613 36.7305 85.2194 36.7005C84.8363 36.6526 84.4607 36.5792 84.0821 36.4556V29.1963C84.5651 29.0458 85.0324 28.9402 85.4778 28.8998C85.927 28.8466 86.2635 28.8271 86.5106 28.8271C87.4165 28.8271 88.1317 29.1551 88.6567 29.803C89.1683 30.4523 89.4229 31.4558 89.4229 32.7777C89.4229 33.5026 89.3538 34.116 89.2043 34.6088Z" fill="#9FA1A1"/>
<path fill-rule="evenodd" clip-rule="evenodd" d="M109.526 38.1996L109.368 36.9264C109.349 36.8014 109.324 36.7302 109.266 36.6995C109.222 36.6516 109.131 36.6471 109 36.6613C108.899 36.6718 108.76 36.6868 108.613 36.7025C108.447 36.722 108.304 36.722 108.183 36.722C107.887 36.722 107.669 36.6516 107.569 36.5123C107.461 36.3745 107.423 36.0974 107.423 35.7034V22.5487C107.423 22.3757 107.379 22.2761 107.307 22.2296C107.24 22.1795 107.119 22.1675 106.959 22.1675H106.219C105.728 22.1952 104.777 22.4536 104.71 23.8061V36.3408C104.71 37.3204 104.923 38.0064 105.315 38.3996C105.716 38.7965 106.326 38.9994 107.191 38.9994C107.495 38.9994 107.832 38.9672 108.222 38.9403C108.613 38.8931 108.951 38.8212 109.253 38.7006C109.407 38.6205 109.498 38.5568 109.526 38.5074C109.557 38.4542 109.557 38.3456 109.526 38.1996Z" fill="#9FA1A1"/>
<path fill-rule="evenodd" clip-rule="evenodd" d="M115.359 38.1996L115.198 36.9264C115.185 36.8014 115.154 36.7302 115.101 36.6995C115.055 36.6516 114.958 36.6471 114.836 36.6613C114.729 36.6718 114.59 36.6868 114.436 36.7025C114.284 36.722 114.137 36.722 114.021 36.722C113.715 36.722 113.518 36.6516 113.406 36.5123C113.295 36.3745 113.25 36.0974 113.25 35.7034V22.5487C113.25 22.3757 113.217 22.2761 113.14 22.2296C113.082 22.1795 112.969 22.1675 112.791 22.1675H112.067C111.557 22.1952 110.567 22.4611 110.556 23.8915V36.3408C110.556 37.3204 110.753 38.0064 111.155 38.3996C111.538 38.7965 112.168 38.9994 113.019 38.9994C113.325 38.9994 113.657 38.9672 114.06 38.9403C114.436 38.8931 114.786 38.8212 115.093 38.7006C115.239 38.6205 115.328 38.5568 115.359 38.5074C115.391 38.4542 115.391 38.3456 115.359 38.1996Z" fill="#9FA1A1"/>
<path fill-rule="evenodd" clip-rule="evenodd" d="M69.4686 38.1996L69.3056 36.9264C69.2943 36.8014 69.256 36.7302 69.2087 36.6995C69.1591 36.6516 69.0652 36.6471 68.9375 36.6613C68.8331 36.6718 68.6896 36.6868 68.5402 36.7025C68.3764 36.722 68.2495 36.722 68.1172 36.722C67.8273 36.722 67.6072 36.6516 67.5148 36.5123C67.3991 36.3745 67.3413 36.0974 67.3413 35.7034V22.5487C67.3413 22.3757 67.3165 22.2761 67.2474 22.2296C67.17 22.1795 67.0701 22.1675 66.8959 22.1675H66.1605C65.6579 22.1952 64.6717 22.4611 64.6604 23.9185V36.3408C64.6604 37.3204 64.8572 38.0064 65.2523 38.3996C65.6422 38.7965 66.2686 38.9994 67.128 38.9994C67.4179 38.9994 67.7695 38.9672 68.1608 38.9403C68.5402 38.8931 68.8917 38.8212 69.1929 38.7006C69.3409 38.6205 69.4333 38.5568 69.4686 38.5074C69.4911 38.4542 69.4911 38.3456 69.4686 38.1996Z" fill="#9FA1A1"/>
<path fill-rule="evenodd" clip-rule="evenodd" d="M30.8726 17.5472C28.2451 21.3569 23.1282 22.5672 19.1253 20.1422C19.117 20.1294 19.1087 20.128 19.1087 20.128L19.0975 20.1197C18.157 19.552 16.9281 18.5739 15.6083 17.3562C8.24697 19.3274 0 23.039 0 27.2674C0 33.6182 18.4094 38.7468 24.7559 38.7468C31.1047 38.7468 36.2599 33.6182 36.2599 27.2674C36.2599 23.2023 34.0823 19.588 30.8726 17.5472Z" fill="#007A33"/>
<path fill-rule="evenodd" clip-rule="evenodd" d="M24.8028 15.8119C24.8028 15.8119 24.8059 15.8096 24.8141 15.8096C25.1792 15.8096 25.527 15.8403 25.8778 15.8695C25.9168 15.8695 25.9717 15.874 26.013 15.886C26.3773 15.9167 26.7206 15.9744 27.0661 16.0395H27.0766C28.4422 16.3279 29.7237 16.8431 30.873 17.5471C30.9616 17.431 31.042 17.3127 31.1193 17.1906C33.641 13.0708 32.3144 7.69058 28.1876 5.19293C24.0517 2.6878 10.0381 -1.21032 7.52018 2.90274C5.57843 6.09463 11.0987 13.1667 15.6079 17.3561C19.2495 16.3773 22.6635 15.8096 24.7563 15.8096C24.7563 15.8096 24.7863 15.8119 24.8028 15.8119Z" fill="#C3D600"/>
<path d="M143 1.24581C143 1.11005 143.11 1 143.246 1H143.254C143.39 1 143.5 1.11005 143.5 1.24581V38.7542C143.5 38.8899 143.39 39 143.254 39H143.246C143.11 39 143 38.8899 143 38.7542V1.24581Z" fill="#CFDBE6"/>
<path fill-rule="evenodd" clip-rule="evenodd" d="M176.883 38.4212C177.071 38.3341 177.185 38.1362 177.166 37.9277L177.158 33.445C177.158 32.5649 176.914 31.8986 176.439 31.4364C175.964 30.9741 175.207 30.7488 174.184 30.7488C173.717 30.7519 173.252 30.7832 172.789 30.8425C172.324 30.9032 171.868 31.0186 171.429 31.1864C171.303 31.2275 171.259 31.3295 171.303 31.494L171.499 32.3477C171.527 32.4333 171.563 32.4925 171.612 32.5122C171.688 32.5268 171.767 32.5205 171.841 32.4941C172.159 32.396 172.486 32.3272 172.816 32.2885C173.178 32.2297 173.544 32.1989 173.911 32.1964C174.171 32.1876 174.431 32.2215 174.68 32.2967C174.855 32.3436 175.016 32.4361 175.145 32.5649C175.256 32.6819 175.336 32.8257 175.377 32.9827C175.417 33.1564 175.438 33.3341 175.438 33.5124V33.7657H173.773C173.263 33.7527 172.756 33.8284 172.272 33.9895C171.905 34.1177 171.566 34.3172 171.275 34.5767C171.022 34.8102 170.833 35.1053 170.725 35.4338C170.608 35.7573 170.549 36.0994 170.551 36.4438C170.548 36.7706 170.597 37.0956 170.698 37.4062C170.801 37.7132 170.981 37.9876 171.221 38.2024C171.521 38.4542 171.87 38.6377 172.246 38.7403C172.772 38.8875 173.318 38.9546 173.864 38.9393C174.101 38.9393 174.356 38.9377 174.615 38.9212C174.873 38.9048 175.137 38.8768 175.413 38.8341C175.674 38.7979 175.932 38.743 176.186 38.6696C176.424 38.6053 176.657 38.5222 176.883 38.4212ZM173.999 35.0966H175.418L175.423 37.296C175.288 37.3486 175.148 37.3888 175.005 37.4161C174.849 37.4457 174.708 37.4687 174.566 37.4884C174.437 37.5082 174.307 37.5198 174.176 37.523C174.054 37.5394 173.951 37.5394 173.882 37.5394C173.486 37.5561 173.093 37.4664 172.743 37.2795C172.464 37.1117 172.316 36.8156 172.316 36.3813C172.304 36.1354 172.36 35.891 172.478 35.6756C172.589 35.5149 172.737 35.3831 172.908 35.2907C173.08 35.2019 173.268 35.1461 173.46 35.1262C173.639 35.1067 173.819 35.0968 173.999 35.0966Z" fill="#43B02A"/>
<path fill-rule="evenodd" clip-rule="evenodd" d="M187.935 38.421C188.121 38.3324 188.233 38.1349 188.213 37.9275L188.22 33.4481C188.218 32.5681 187.992 31.9018 187.512 31.4396C187.033 30.9773 186.273 30.752 185.244 30.752C184.779 30.7554 184.314 30.7868 183.852 30.8457C183.387 30.9057 182.93 31.0205 182.491 31.1879C182.359 31.229 182.314 31.331 182.359 31.4955L182.568 32.3493C182.575 32.4183 182.615 32.4795 182.675 32.5138C182.751 32.5284 182.831 32.5221 182.904 32.4957C183.219 32.3982 183.541 32.3294 183.868 32.29C184.232 32.2315 184.599 32.2007 184.968 32.1979C185.226 32.1889 185.485 32.2228 185.733 32.2983C185.91 32.348 186.071 32.44 186.205 32.5664C186.317 32.6819 186.395 32.8265 186.431 32.9842C186.47 33.158 186.49 33.3357 186.489 33.5139V33.7673H184.826C184.317 33.7537 183.809 33.8294 183.325 33.991C182.959 34.1191 182.622 34.3187 182.332 34.5783C182.08 34.8127 181.891 35.1075 181.782 35.4353C181.666 35.7589 181.607 36.101 181.61 36.4454C181.606 36.7716 181.654 37.0963 181.75 37.4077C181.857 37.7131 182.037 37.9868 182.275 38.2039C182.576 38.453 182.925 38.6357 183.299 38.7402C183.829 38.887 184.377 38.954 184.925 38.9392C185.158 38.9392 185.387 38.9376 185.659 38.9211C185.93 38.9047 186.184 38.8767 186.463 38.8339C186.723 38.7984 186.981 38.7434 187.233 38.6694C187.473 38.6052 187.708 38.5221 187.935 38.421ZM185.052 35.0965H186.468L186.473 37.2958C186.337 37.3503 186.195 37.3905 186.05 37.4159C185.901 37.4455 185.756 37.4686 185.621 37.4883C185.49 37.508 185.358 37.5195 185.226 37.5229C185.101 37.5393 185.002 37.5393 184.938 37.5393C184.542 37.5593 184.149 37.4694 183.8 37.2794C183.502 37.1116 183.363 36.8155 183.363 36.3812C183.353 36.1354 183.409 35.8915 183.525 35.6755C183.64 35.5161 183.789 35.3846 183.961 35.2906C184.131 35.2033 184.316 35.1476 184.506 35.1261C184.687 35.1064 184.87 35.0965 185.052 35.0965Z" fill="#43B02A"/>
<path fill-rule="evenodd" clip-rule="evenodd" d="M202.841 31.6303C202.285 31.0414 201.442 30.7469 200.312 30.7469L200.301 30.7436C199.812 30.738 199.327 30.8332 198.875 31.0233C198.443 31.1958 198.058 31.4699 197.751 31.8228C197.427 32.2063 197.182 32.6507 197.028 33.1306C196.833 33.6942 196.738 34.2887 196.75 34.8858C196.75 36.294 197.078 37.3303 197.701 37.9719C198.324 38.6134 199.244 38.9424 200.437 38.9424C200.865 38.9388 201.291 38.8959 201.711 38.8141C202.145 38.7272 202.562 38.5646 202.942 38.3338L202.976 38.3157C203.085 38.2442 203.116 38.0971 203.046 37.9867L202.654 37.1395C202.584 37.0046 202.478 36.9799 202.316 37.0457C202.062 37.1691 201.797 37.2661 201.524 37.3353C201.219 37.4136 200.906 37.4529 200.592 37.452C200.317 37.4529 200.044 37.4169 199.779 37.3451C199.54 37.2745 199.319 37.1546 199.129 36.9931C198.936 36.8153 198.786 36.596 198.69 36.3515C198.572 36.0366 198.516 35.7011 198.527 35.3645H202.464C202.625 35.3661 202.786 35.3451 202.942 35.302C203.082 35.2725 203.21 35.2015 203.311 35.098C203.429 34.9881 203.519 34.8502 203.572 34.6966C203.63 34.4879 203.658 34.2718 203.654 34.0551C203.654 33.0236 203.377 32.2176 202.841 31.6303ZM199.091 32.7769C199.391 32.3988 199.848 32.1831 200.327 32.1929L200.335 32.1946C200.618 32.1857 200.9 32.2366 201.163 32.3443C201.358 32.4367 201.527 32.5797 201.651 32.7588C201.778 32.939 201.866 33.1441 201.911 33.3609C201.967 33.6062 201.996 33.8574 201.995 34.1094H198.581C198.588 33.8649 198.636 33.6234 198.724 33.3954C198.814 33.1712 198.938 32.9626 199.091 32.7769Z" fill="#43B02A"/>
<path fill-rule="evenodd" clip-rule="evenodd" d="M217.833 38.421C218.02 38.3329 218.132 38.1353 218.112 37.9275L218.127 33.4481C218.127 32.5681 217.908 31.9018 217.42 31.4396C216.932 30.9773 216.168 30.752 215.143 30.752C214.678 30.7551 214.214 30.7864 213.753 30.8457C213.288 30.9068 212.831 31.0216 212.392 31.1879C212.254 31.229 212.215 31.331 212.254 31.4955L212.464 32.3493C212.472 32.4184 212.513 32.4795 212.573 32.5138C212.651 32.5282 212.733 32.522 212.808 32.4957C213.119 32.3988 213.438 32.33 213.761 32.29C214.128 32.2315 214.499 32.2007 214.87 32.1979C215.129 32.1895 215.388 32.2234 215.636 32.2983C215.81 32.3472 215.969 32.4394 216.099 32.5664C216.207 32.6845 216.283 32.8283 216.321 32.9842C216.362 33.1576 216.381 33.3356 216.377 33.5139V33.7673H214.719C214.209 33.7535 213.701 33.8292 213.216 33.991C212.85 34.1163 212.512 34.3161 212.225 34.5783C211.969 34.8116 211.775 35.1064 211.662 35.4353C211.549 35.7595 211.494 36.1016 211.499 36.4454C211.497 36.772 211.547 37.0968 211.646 37.4077C211.752 37.7137 211.932 37.9875 212.171 38.2039C212.469 38.4517 212.816 38.6343 213.187 38.7402C213.717 38.886 214.265 38.953 214.813 38.9392C215.056 38.9392 215.312 38.9376 215.563 38.9211C215.813 38.9047 216.088 38.8767 216.358 38.8339C216.62 38.7982 216.878 38.7432 217.132 38.6694C217.372 38.6051 217.606 38.522 217.833 38.421ZM214.938 35.0965H216.368L216.364 37.2959C216.227 37.3479 216.085 37.3881 215.94 37.4159C215.795 37.4455 215.641 37.4686 215.503 37.4883C215.373 37.5083 215.242 37.5199 215.111 37.5229C215.015 37.5334 214.919 37.5389 214.823 37.5393C214.428 37.5564 214.035 37.4667 213.685 37.2794C213.395 37.1116 213.256 36.8155 213.256 36.3812C213.247 36.1346 213.306 35.8904 213.426 35.6755C213.536 35.5154 213.681 35.3836 213.851 35.2906C214.024 35.2015 214.213 35.1458 214.407 35.1261C214.583 35.1067 214.761 35.0969 214.938 35.0965Z" fill="#43B02A"/>
<path d="M170.849 28.3732C170.815 28.3156 170.725 28.2926 170.589 28.2926H166.425C165.998 28.28 165.573 28.3562 165.176 28.5163C164.862 28.6461 164.583 28.8497 164.363 29.1102C164.153 29.3608 164.002 29.656 163.92 29.9738C163.84 30.3065 163.798 30.6478 163.797 30.9904V38.4621C163.797 38.5904 163.825 38.6776 163.89 38.7171C163.967 38.7626 164.056 38.7837 164.145 38.778H164.607C164.932 38.7549 165.602 38.5904 165.602 37.6166V34.162H170.041C170.174 34.162 170.252 34.1341 170.291 34.0748C170.332 33.9971 170.351 33.9094 170.345 33.8215V32.9694C170.357 32.8765 170.338 32.782 170.291 32.7013C170.254 32.6503 170.174 32.6239 170.041 32.6239H165.6V30.8786C165.581 30.6155 165.665 30.3553 165.834 30.1548C165.981 29.9903 166.251 29.9047 166.625 29.9047H170.589C170.724 29.9047 170.802 29.8767 170.838 29.8241C170.892 29.7476 170.917 29.6533 170.907 29.5593V28.6348C170.91 28.5445 170.89 28.4551 170.849 28.3748" fill="#43B02A"/>
<path fill-rule="evenodd" clip-rule="evenodd" d="M195.343 31.8772C195.625 32.2618 195.829 32.6982 195.946 33.1619L195.945 33.1636C196.081 33.6863 196.149 34.2251 196.145 34.7658C196.152 35.3264 196.081 35.8853 195.933 36.4256C195.802 36.9096 195.573 37.3609 195.262 37.7515C194.947 38.1334 194.547 38.4344 194.094 38.63C193.557 38.8437 192.982 38.9477 192.405 38.9359C191.885 38.9385 191.366 38.8978 190.852 38.8142C190.346 38.7505 189.853 38.6096 189.389 38.3964C189.316 38.3735 189.254 38.3258 189.213 38.2615C189.181 38.1945 189.166 38.1204 189.169 38.046V28.9704C189.189 28.0393 189.82 27.8666 190.145 27.8436H190.616C190.691 27.8333 190.767 27.8496 190.831 27.8896C190.884 27.9502 190.91 28.031 190.901 28.1117V31.0185C191.21 30.9223 191.526 30.8546 191.847 30.8161C192.149 30.7734 192.453 30.7514 192.758 30.7503C193.286 30.7338 193.811 30.8378 194.294 31.0547C194.704 31.2392 195.064 31.5214 195.343 31.8772ZM193.811 36.8649C194 36.6223 194.142 36.3461 194.229 36.0506H194.223C194.328 35.6589 194.375 35.2537 194.363 34.8481C194.363 33.9664 194.2 33.3116 193.867 32.8872C193.532 32.4557 193.011 32.2148 192.47 32.2407C192.244 32.2453 192.019 32.2618 191.795 32.2901C191.49 32.315 191.19 32.3791 190.901 32.4809V37.2679C191.139 37.3475 191.385 37.3994 191.634 37.4225C191.86 37.4477 192.087 37.4615 192.314 37.4637C192.603 37.4684 192.89 37.4187 193.161 37.3173C193.412 37.2241 193.636 37.0685 193.811 36.8649Z" fill="#43B02A"/>
<path d="M207.452 38.4179L207.345 37.5838C207.351 37.5215 207.327 37.4599 207.28 37.4193C207.229 37.3949 207.172 37.3886 207.117 37.4012C207.052 37.4012 206.955 37.416 206.862 37.4308C206.769 37.4457 206.657 37.4308 206.587 37.4308C206.441 37.4518 206.293 37.399 206.192 37.2894C206.108 37.1284 206.073 36.9458 206.091 36.7646V28.0954C206.1 28.0188 206.074 27.9425 206.02 27.8881C205.945 27.8509 205.862 27.8356 205.779 27.8437H205.314C204.989 27.8667 204.373 28.0394 204.338 28.9294V37.189C204.338 37.8322 204.468 38.2846 204.725 38.5462C204.982 38.8077 205.387 38.9311 205.942 38.9311C206.132 38.9311 206.358 38.9311 206.612 38.8999C206.842 38.8767 207.068 38.8213 207.283 38.7354C207.353 38.7113 207.415 38.6673 207.46 38.6087C207.481 38.5439 207.481 38.4744 207.46 38.4096" fill="#43B02A"/>
<path d="M211.252 38.4176L211.148 37.5836C211.149 37.5213 211.123 37.4616 211.078 37.4191C211.027 37.3959 210.97 37.3896 210.915 37.401C210.846 37.401 210.753 37.4158 210.657 37.4306C210.561 37.4454 210.457 37.4306 210.385 37.4306C210.236 37.4515 210.086 37.3989 209.982 37.2892C209.903 37.1265 209.869 36.945 209.885 36.7644V28.0951C209.885 27.9849 209.862 27.9191 209.816 27.8879C209.745 27.8502 209.664 27.8347 209.584 27.8434H209.096C208.771 27.8665 208.133 28.0458 208.12 28.995V37.1888C208.12 37.832 208.244 38.2844 208.499 38.546C208.755 38.8075 209.164 38.9309 209.715 38.9309C209.919 38.9309 210.138 38.9309 210.39 38.8996C210.624 38.8757 210.853 38.8204 211.072 38.7351C211.139 38.7076 211.198 38.6641 211.246 38.6085C211.259 38.5428 211.259 38.4751 211.246 38.4094" fill="#43B02A"/>
<path d="M181.382 38.4177L181.28 37.5837C181.265 37.4965 181.25 37.4472 181.215 37.4192C181.161 37.3943 181.1 37.3879 181.042 37.4011C180.976 37.4011 180.88 37.4159 180.779 37.4307C180.678 37.4455 180.587 37.4307 180.507 37.4307C180.36 37.4519 180.211 37.3991 180.109 37.2892C180.031 37.2021 180 37.0211 180 36.7645V28.0952C180 27.985 179.987 27.9192 179.94 27.888C179.87 27.8511 179.792 27.8357 179.714 27.8435H179.226C178.901 27.8666 178.25 28.0459 178.25 28.9951V37.1889C178.25 37.8321 178.382 38.2845 178.633 38.546C178.883 38.8076 179.293 38.931 179.849 38.931C180.042 38.931 180.27 38.931 180.52 38.8997C180.753 38.8761 180.981 38.8208 181.198 38.7352C181.272 38.7277 181.337 38.6838 181.373 38.618C181.408 38.5522 181.409 38.473 181.376 38.4062" fill="#43B02A"/>
<path d="M219.411 21.7158L217.171 19.4523L213.741 15.9977L214.189 15.899C217.244 15.2558 219.293 13.3081 219.299 9.56897C219.299 5.20308 215.68 2.7849 212.067 2.77832H204.524C204.452 2.7816 204.382 2.79951 204.317 2.83096C204.263 2.86551 204.234 2.95105 204.234 3.09087V22.0958C204.263 22.2258 204.299 22.308 204.358 22.3327C204.441 22.3639 204.531 22.3702 204.618 22.3508H204.66L207.795 21.8902C207.847 21.8871 207.898 21.8713 207.943 21.8441C208.003 21.8112 208.024 21.7224 208.024 21.5875V6.51087H212.21C214.021 6.51087 215.589 7.80715 215.593 9.53278C215.598 11.2584 214.335 12.1253 212.541 12.5678C210.717 13.04 209.893 14.3231 209.883 15.7197C209.895 16.6748 210.256 17.5916 210.896 18.2942C211.21 18.7024 211.553 19.0872 211.922 19.4457L211.953 19.4704L216.971 24.6275C217.285 24.8281 217.649 24.9337 218.021 24.9318C219.072 24.9347 219.93 24.082 219.946 23.0187C219.957 22.5227 219.761 22.0451 219.406 21.7027" fill="#43B02A"/>
<path d="M178.688 16.7693C178.371 16.5629 178.002 16.4528 177.624 16.4518C177.109 16.4536 176.616 16.6694 176.262 17.0489C176.151 17.1822 175.906 17.4092 175.81 17.5062C173.479 19.6907 169.996 20.0404 167.286 18.362C164.575 16.6837 163.299 13.3869 164.161 10.2928C165.023 7.19865 167.814 5.06206 170.992 5.0633C172.293 5.0633 174.081 5.29854 175.631 6.80209C175.645 6.81801 175.663 6.83039 175.683 6.83828C175.765 6.88067 175.859 6.89064 175.948 6.86625L179.299 6.37274C179.636 6.32339 179.472 6.06019 179.472 6.06019C178.877 4.96131 176.395 1.10703 170.652 1.16296C164.594 1.22218 160.059 6.03387 160.002 12.2866C160.012 16.8324 162.757 20.9141 166.932 22.5938C171.107 24.2736 175.873 23.2133 178.966 19.9162C179.083 19.7696 179.187 19.6127 179.277 19.4474C179.465 19.1235 179.566 18.7555 179.571 18.3798C179.559 17.7276 179.229 17.1236 178.69 16.766" fill="#43B02A"/>
<path d="M199.429 2.0249C197.865 2.0249 196.972 3.14187 196.276 4.61581L191.992 13.8296C191.992 13.8296 191.955 13.9414 191.886 13.9414C191.818 13.9414 191.769 13.8296 191.769 13.8296L188.109 7.53079L186.981 5.57157C186.915 5.45971 186.846 5.3972 186.779 5.39226C186.744 5.38581 186.708 5.38581 186.673 5.39226L181.676 6.09798C181.629 6.10571 181.583 6.12305 181.542 6.14897C181.489 6.17858 181.465 6.26906 181.465 6.40724V23.0154C181.465 24.0756 182.315 24.9351 183.363 24.9351C184.411 24.9351 185.26 24.0756 185.26 23.0154V10.2467L190.707 19.4588L191.872 21.4115C191.872 21.4115 191.914 21.4822 191.976 21.4822C192.037 21.4822 192.062 21.4115 192.062 21.4115L193.01 19.4506L198.499 8.19209V22.9529H198.511C198.532 23.0795 198.568 23.1568 198.631 23.1881C198.703 23.2127 198.779 23.2206 198.854 23.2111H198.881L202.044 22.7538C202.104 22.7489 202.163 22.7316 202.216 22.7028C202.278 22.6683 202.291 22.5877 202.299 22.4676H202.311V4.92508C202.286 3.32802 201.008 2.04165 199.429 2.0249" fill="#43B02A"/>
</svg>
