<?xml version="1.0" encoding="UTF-8"?>
<svg width="32px" height="32px" viewBox="0 0 32 32" version="1.1" xmlns="http://www.w3.org/2000/svg" xmlns:xlink="http://www.w3.org/1999/xlink">
    <!-- Generator: Sketch 48.2 (47327) - http://www.bohemiancoding.com/sketch -->
    <title>icn-transferir</title>
    <desc>Created with Sketch.</desc>
    <defs></defs>
    <g id="Page-1" stroke="none" stroke-width="1" fill="none" fill-rule="evenodd">
        <g id="icn-transferir">
            <g id="Group-2" transform="translate(3.500000, 7.000000)">
                <path d="M0,9 L6.00492207,9" id="trazo" stroke="#FFFFFF" stroke-width="2" stroke-linecap="round" stroke-linejoin="round"></path>
                <path d="M2.00164069,5 L6.50533224,5" id="trazo" stroke="#FFFFFF" stroke-width="2" stroke-linecap="round" stroke-linejoin="round"></path>
                <path d="M2.00164069,13 L6.50533224,13" id="trazo" stroke="#FFFFFF" stroke-width="2" stroke-linecap="round" stroke-linejoin="round"></path>
                <path d="M17.1468529,12.4240486 C16.9014659,12.6114487 16.602043,12.7572753 16.2479483,12.8487368 C16.115719,12.8858331 15.9752254,12.9037416 15.8385461,12.9267669 L15.8385461,13.7716661 C15.8385461,13.8995843 15.7069526,14 15.5435732,14 L14.6084326,14 C14.4450532,14 14.3134597,13.8995843 14.3134597,13.7716661 L14.3134597,12.9446754 C14.0725227,12.917173 13.8366715,12.8858331 13.6001845,12.8353054 C13.3503475,12.7803006 13.1055962,12.7073873 12.8646593,12.6204029 C12.624358,12.5340582 12.4018569,12.4285257 12.2016058,12.3050847 C12.1431198,12.2686281 12.1062482,12.2276943 12.0973481,12.1867605 C12.0833624,12.1407099 12.0973481,12.0722737 12.133584,11.9763351 L12.5061146,11.1084106 C12.5423505,11.0169492 12.5830364,10.9670611 12.624358,10.9529901 C12.669494,10.9395587 12.7286157,10.9529901 12.8099876,10.9894468 C12.9555669,11.0444516 13.1144963,11.1039335 13.2918615,11.1678925 C13.464141,11.2273745 13.6459562,11.2817397 13.8271357,11.3322673 C14.013401,11.3776783 14.2041162,11.4192517 14.3948315,11.4512312 C14.5899968,11.4832107 14.7813478,11.4966421 14.9669773,11.4966421 C15.1894785,11.4966421 15.3801938,11.4787336 15.5346731,11.4326831 C15.6847025,11.3917493 15.811846,11.3322673 15.9027536,11.2638311 C15.9981113,11.1953949 16.066133,11.1173649 16.1023689,11.0259034 C16.1386048,10.9350815 16.1570407,10.8391429 16.1570407,10.7380876 C16.1570407,10.6287176 16.1341548,10.5283019 16.0934689,10.4413176 C16.0565973,10.3543332 15.9885755,10.2724656 15.8983036,10.1854813 C15.807396,10.1029741 15.6847025,10.0255836 15.5302231,9.94819316 C15.3712937,9.8701631 15.1805784,9.78829549 14.9447272,9.70131116 C14.5626609,9.5548449 14.213652,9.40901823 13.9002432,9.25807483 C13.5868345,9.1026543 13.3185616,8.93380237 13.0916104,8.75087944 C12.8691093,8.56411896 12.6968298,8.35817077 12.5741363,8.1298369 C12.4558929,7.90150304 12.3974068,7.63159578 12.3974068,7.33034858 C12.3974068,7.02398465 12.4469928,6.73616885 12.5557005,6.46690118 C12.6605939,6.20147106 12.8195233,5.96866006 13.0280387,5.76782859 C13.2371898,5.56699712 13.5092769,5.41157659 13.8366715,5.29261273 C13.9816151,5.24272466 14.1449945,5.20626799 14.3134597,5.17364886 L14.3134597,4.22833387 C14.3134597,4.10489287 14.4450532,4 14.6084326,4 L15.5435732,4 C15.7069526,4 15.8385461,4.10489287 15.8385461,4.22833387 L15.8385461,5.18324272 C15.9841255,5.20115126 16.1341548,5.21969939 16.2790984,5.25167893 C16.4971496,5.29261273 16.7018506,5.34761752 16.8970159,5.40709946 C17.0921812,5.47105852 17.2695464,5.53949472 17.4278401,5.62136233 C17.5187477,5.66293572 17.5645194,5.70386952 17.5778695,5.74480333 C17.5874052,5.78637672 17.5734194,5.85929005 17.5371835,5.96866006 L17.2555606,6.78669651 C17.2193247,6.88711225 17.1830888,6.94659418 17.1468529,6.96002558 C17.110617,6.97409658 17.0514953,6.96961944 16.9605877,6.94659418 C16.6198431,6.84617845 16.2790984,6.76367125 15.9434395,6.69971218 C15.6026949,6.63127598 15.2892861,6.59929645 14.9898632,6.59929645 C14.6675543,6.59929645 14.4450532,6.65877838 14.3134597,6.77262552 C14.1812304,6.89158938 14.1176586,7.03357851 14.1176586,7.19795331 C14.1176586,7.29389191 14.1405445,7.38023665 14.1812304,7.45826671 C14.2270021,7.54013431 14.2994739,7.61816437 14.3948315,7.69555484 C14.4946392,7.76910777 14.6262327,7.84649824 14.7896121,7.92900544 C14.9536273,8.00639591 15.1532426,8.09785737 15.3941796,8.18931884 C15.7616243,8.33514551 16.1023689,8.48161177 16.4157777,8.63255516 C16.7285508,8.77838184 16.9968236,8.94723377 17.2193247,9.13463383 C17.4418259,9.32651103 17.6141054,9.54589063 17.7412489,9.80172689 C17.8683924,10.053086 17.9325999,10.3588104 17.9325999,10.715702 C17.9325999,11.0994563 17.8639424,11.4326831 17.7234488,11.7160217 C17.5874052,11.9993604 17.3922399,12.2366485 17.1468529,12.4240486 Z" id="forma" fill="#FFFFFF"></path>
                <ellipse id="trazo" stroke="#FFFFFF" stroke-width="2" stroke-linecap="round" stroke-linejoin="round" cx="15.0123052" cy="9" rx="9.0073831" ry="9"></ellipse>
            </g>
        </g>
    </g>
</svg>